<svg xmlns="http://www.w3.org/2000/svg" width="905.1" height="144.1" viewBox="0 0 905.1 144.1" role="img" aria-label="OSK Ostrycharz"><path d="M26.305817074839958 36.29600000000001Q19.114050249536724 36.29600000000001 13.840817116955861 34.095610351562506Q8.567583984375 31.895220703125005 5.7149345703125 27.761220703125005Q2.86228515625 23.627220703125005 2.86228515625 17.80859751037345Q2.86228515625 11.940779296875004 5.7149345703125 7.804519531250003Q8.567583984375 3.6682597656250024 13.840817116955861 1.4820000000000029Q19.114050249536724 -0.7042597656249967 26.305817074839958 -0.7042597656249967Q33.592 -0.7042597656249967 38.8389091796875 1.4820000000000029Q44.085818359375 3.6682597656250024 46.938467773437495 7.804519531250003Q49.7911171875 11.940779296875004 49.7911171875 17.80859751037345Q49.7911171875 23.627220703125005 46.938467773437495 27.761220703125005Q44.085818359375 31.895220703125005 38.8389091796875 34.095610351562506Q33.592 36.29600000000001 26.305817074839958 36.29600000000001ZM26.326701171874998 28.448570312500003Q29.126804687499998 28.448570312500003 31.435167968749997 27.762959960937504Q33.74353125 27.077349609375005 35.4205439453125 25.772258789062505Q37.097556640625 24.467167968750005 38.0036083984375 22.58517252604167Q38.90966015625 20.703177083333337 38.90966015625 18.356000000000005V17.131740234375005Q38.90966015625 14.795129361087334 38.0036083984375 12.93385081335617Q37.097556640625 11.072572265625006 35.4205439453125 9.781611328125006Q33.74353125 8.490650390625007 31.435167968749997 7.816910156250007Q29.126804687499998 7.143169921875007 26.326701171874998 7.143169921875007Q23.526597656249997 7.143169921875007 21.218234374999998 7.816910156250007Q18.90987109375 8.490650390625007 17.2328583984375 9.781611328125006Q15.555845703125 11.072572265625006 14.6616640625 12.93385081335617Q13.767482421875 14.795129361087334 13.767482421875 17.131740234375005V18.356000000000005Q13.767482421875 20.703177083333337 14.6616640625 22.58517252604167Q15.555845703125 24.467167968750005 17.2328583984375 25.772258789062505Q18.90987109375 27.077349609375005 21.218234374999998 27.762959960937504Q23.526597656249997 28.448570312500003 26.326701171874998 28.448570312500003Z M83.4373515625 36.29600000000001Q79.07049414062499 36.29600000000001 75.28015624999999 35.773740234375005Q71.489818359375 35.25148046875 68.63999999999999 33.94922070312501Q65.790181640625 32.646960937500005 64.18101269531249 30.316571289062505Q62.57184375 27.986181640625006 62.57184375 24.398181640625005Q62.57184375 24.294181640625006 62.57184375 24.124051757812506Q62.57184375 23.953921875000006 62.62384375 23.793402343750003H72.995482421875Q72.94348242187499 24.001402343750005 72.93161230468749 24.230882812500006Q72.91974218749999 24.460363281250004 72.91974218749999 24.711324218750004Q72.91974218749999 26.295064453125004 74.125923828125 27.210155273437504Q75.33210546875 28.125246093750004 77.53646875 28.494336914062504Q79.74083203125 28.863427734375005 82.65963671875 28.863427734375005Q83.8850390625 28.863427734375005 85.164701171875 28.789947265625003Q86.44436328124999 28.716466796875004 87.63641503906248 28.527116210937503Q88.82846679687499 28.337765625000003 89.776908203125 27.982804687500003Q90.725349609375 27.627843750000004 91.2905703125 27.067142578125004Q91.85579101562499 26.506441406250005 91.85579101562499 25.711740234375007Q91.85579101562499 24.585818359375004 90.66205078124999 23.935247070312506Q89.46831054687499 23.284675781250005 87.43070019531248 22.891844726562503Q85.39308984374999 22.499013671875005 82.86373925781248 22.191533203125005Q80.33438867187499 21.884052734375004 77.6230380859375 21.456182617187505Q74.9116875 21.028312500000006 72.3823369140625 20.274312500000008Q69.852986328125 19.520312500000006 67.8153759765625 18.26779296875001Q65.777765625 17.015273437500007 64.584025390625 15.046624023437506Q63.390285156249995 13.077974609375005 63.390285156249995 10.237195312500006Q63.390285156249995 7.402078125000006 64.8264931640625 5.336779296875006Q66.262701171875 3.2714804687500063 68.8570390625 1.9313505859375049Q71.45137695312499 0.5912207031250034 74.98454589843749 -0.056519531249996646Q78.51771484375 -0.7042597656249967 82.68337695312499 -0.7042597656249967Q86.929298828125 -0.7042597656249967 90.3844677734375 -0.046909179687496305Q93.83963671875 0.6104414062500041 96.3203642578125 1.934181640625006Q98.801091796875 3.257921875000008 100.1355595703125 5.268960937500006Q101.47002734374999 7.280000000000005 101.47002734374999 9.987376953125004V10.706337890625004H91.202388671875V10.284675781250005Q91.202388671875 9.197195312500007 90.26524609375 8.355584960937506Q89.328103515625 7.513974609375005 87.53522070312499 7.008104492187504Q85.742337890625 6.502234375000004 83.17963671874999 6.502234375000004Q80.11387109374999 6.502234375000004 78.14124804687499 6.8854550781250055Q76.16862499999999 7.268675781250007 75.23205371093749 7.933376953125006Q74.295482421875 8.598078125000004 74.295482421875 9.388259765625005Q74.295482421875 10.442960937500004 75.48922265624999 11.057921875000005Q76.68296289062499 11.672882812500006 78.7205732421875 12.030103515625006Q80.75818359374999 12.387324218750006 83.2875341796875 12.694804687500005Q85.81688476562499 13.002285156250004 88.5282353515625 13.427895507812504Q91.2395859375 13.853505859375005 93.7689365234375 14.567375976562506Q96.298287109375 15.281246093750006 98.3358974609375 16.517375976562505Q100.3735078125 17.753505859375004 101.567248046875 19.641895507812503Q102.76098828125 21.530285156250002 102.76098828125 24.290804687500007Q102.76098828125 28.592103515625006 100.27007910156249 31.241272460937505Q97.779169921875 33.890441406250005 93.41626074218749 35.093220703125006Q89.0533515625 36.29600000000001 83.4373515625 36.29600000000001Z M116.714025390625 35.672000000000004V-0.08025976562499437H127.302703125V17.270855468750003L146.75532421875 -0.08025976562499437H160.12711914062498L143.77309375 14.650441406250007L160.49563867187499 35.672000000000004H147.36010351562498L135.97091015625 21.016988281250004L127.302703125 28.034753906250003V35.672000000000004Z" fill="#0E0E10"/><path d="M50.58810975930762 124.68000000000002Q36.75778894141678 124.68000000000002 26.61695599414589 120.44848144531252Q16.476123046875 116.21696289062501 10.9902587890625 108.26696289062502Q5.50439453125 100.31696289062502 5.50439453125 89.12730290456433Q5.50439453125 77.84303710937502 10.9902587890625 69.88869140625002Q16.476123046875 61.93434570312502 26.61695599414589 57.73000000000002Q36.75778894141678 53.52565429687502 50.58810975930762 53.52565429687502Q64.60000000000001 53.52565429687502 74.69020996093751 57.73000000000002Q84.78041992187501 61.93434570312502 90.26628417968752 69.88869140625002Q95.75214843750001 77.84303710937502 95.75214843750001 89.12730290456433Q95.75214843750001 100.31696289062502 90.26628417968752 108.26696289062502Q84.78041992187501 116.21696289062501 74.69020996093751 120.44848144531252Q64.60000000000001 124.68000000000002 50.58810975930762 124.68000000000002ZM50.628271484375006 109.58878906250001Q56.0130859375 109.58878906250001 60.452246093750006 108.27030761718751Q64.89140625 106.95182617187501 68.1164306640625 104.44203613281252Q71.34145507812501 101.93224609375002 73.0838623046875 98.31302408854168Q74.82626953125 94.69380208333335 74.82626953125 90.18V87.82565429687502Q74.82626953125 83.33217184824488 73.0838623046875 79.75279002568494Q71.34145507812501 76.173408203125 68.1164306640625 73.69079101562501Q64.89140625 71.20817382812501 60.452246093750006 69.91251953125001Q56.0130859375 68.61686523437501 50.628271484375006 68.61686523437501Q45.24345703125 68.61686523437501 40.804296875000006 69.91251953125001Q36.36513671875 71.20817382812501 33.140112304687506 73.69079101562501Q29.915087890625003 76.173408203125 28.195507812500004 79.75279002568494Q26.475927734375002 83.33217184824488 26.475927734375002 87.82565429687502V90.18Q26.475927734375002 94.69380208333335 28.195507812500004 98.31302408854168Q29.915087890625003 101.93224609375002 33.140112304687506 104.44203613281252Q36.36513671875 106.95182617187501 40.804296875000006 108.27030761718751Q45.24345703125 109.58878906250001 50.628271484375006 109.58878906250001Z M144.45644531250002 124.68000000000002Q136.05864257812502 124.68000000000002 128.76953125 123.67565429687502Q121.48041992187501 122.67130859375001 116.00000000000001 120.16696289062502Q110.51958007812502 117.66261718750002 107.4250244140625 113.18109863281252Q104.33046875000001 108.69958007812502 104.33046875000001 101.79958007812502Q104.33046875000001 101.59958007812502 104.33046875000001 101.2724072265625Q104.33046875000001 100.94523437500001 104.43046875000002 100.63654296875002H124.37592773437501Q124.27592773437502 101.03654296875001 124.25310058593752 101.4778515625Q124.23027343750002 101.91916015625002 124.23027343750002 102.40177734375001Q124.23027343750002 105.44743164062501 126.54985351562502 107.2072216796875Q128.86943359375002 108.96701171875002 133.10859375 109.67680175781251Q137.34775390625 110.38659179687502 142.96083984375002 110.38659179687502Q145.3173828125 110.38659179687502 147.778271484375 110.24528320312501Q150.23916015625002 110.10397460937502 152.5315673828125 109.73983886718752Q154.823974609375 109.37570312500002 156.647900390625 108.69308593750002Q158.47182617187502 108.01046875000002 159.5587890625 106.932197265625Q160.645751953125 105.85392578125001 160.645751953125 104.32565429687502Q160.645751953125 102.16041992187502 158.35009765625 100.90932128906252Q156.054443359375 99.65822265625002 152.1359619140625 98.90277832031252Q148.21748046875 98.14733398437502 143.3533447265625 97.55602539062502Q138.489208984375 96.96471679687502 133.27507324218752 96.14188964843751Q128.06093750000002 95.31906250000002 123.19680175781252 93.86906250000001Q118.33266601562501 92.41906250000002 114.4141845703125 90.01037109375002Q110.495703125 87.60167968750002 108.200048828125 83.81581542968752Q105.90439453125 80.02995117187501 105.90439453125 74.56691406250002Q105.90439453125 69.11476562500002 108.66633300781251 65.14303710937502Q111.42827148437502 61.17130859375001 116.41738281250002 58.59413574218751Q121.40649414062501 56.01696289062501 128.2010498046875 54.771308593750014Q134.99560546875 53.52565429687502 143.00649414062502 53.52565429687502Q151.171728515625 53.52565429687502 157.8162841796875 54.78979003906252Q164.46083984375002 56.053925781250015 169.23146972656252 58.599580078125015Q174.00209960937502 61.145234375000015 176.56838378906252 65.01261718750001Q179.13466796875002 68.88000000000002 179.13466796875002 74.086494140625V75.46911132812502H159.38920898437502V74.65822265625002Q159.38920898437502 72.56691406250002 157.58701171875003 70.94843261718752Q155.78481445312502 69.32995117187502 152.33696289062502 68.35712402343752Q148.889111328125 67.38429687500002 143.96083984375002 67.38429687500002Q138.06513671875 67.38429687500002 134.27163085937502 68.12125976562501Q130.478125 68.85822265625 128.67702636718752 70.13649414062502Q126.87592773437501 71.41476562500002 126.87592773437501 72.93434570312502Q126.87592773437501 74.96261718750002 129.17158203125 76.14523437500002Q131.467236328125 77.32785156250002 135.3857177734375 78.01481445312501Q139.30419921875 78.70177734375002 144.1683349609375 79.29308593750002Q149.032470703125 79.88439453125002 154.24660644531252 80.70287597656252Q159.46074218750002 81.52135742187502 164.32487792968752 82.89418457031252Q169.18901367187502 84.26701171875001 173.1074951171875 86.64418457031252Q177.02597656250003 89.02135742187502 179.32163085937503 92.65287597656251Q181.61728515625003 96.28439453125002 181.61728515625003 101.59308593750002Q181.61728515625003 109.86481445312502 176.82707519531252 114.95937011718752Q172.036865234375 120.05392578125002 163.6466552734375 122.36696289062502Q155.2564453125 124.68000000000002 144.45644531250002 124.68000000000002Z M216.23046875 123.48000000000002V71.11466796875001H186.436962890625V54.72565429687502H266.38681640625V71.11466796875001H236.593310546875V123.48000000000002Z M275.250048828125 123.48000000000002V54.72565429687502H332.476025390625Q339.993408203125 54.72565429687502 344.91513671875 57.81151855468752Q349.836865234375 60.89738281250001 352.29990234375 65.93759277343752Q354.762939453125 70.97780273437502 354.762939453125 76.93214843750002Q354.762939453125 83.46691406250002 351.66728515625005 88.81691406250002Q348.57163085937503 94.16691406250001 342.35205078125 97.27560546875002L356.40859375 123.48000000000002H333.43925781250005L322.03486328125 100.61037109375002H295.61289062500003V123.48000000000002ZM295.61289062500003 85.56481445312502H325.83046875Q329.49790039062503 85.56481445312502 331.69465332031257 83.35827148437502Q333.89140625000005 81.15172851562502 333.89140625000005 77.50387695312502Q333.89140625000005 75.038642578125 332.90009765625007 73.31471679687502Q331.90878906250003 71.59079101562502 330.11638183593755 70.70382812500002Q328.323974609375 69.81686523437502 325.83046875 69.81686523437502H295.61289062500003Z M393.72607421875 123.48000000000002V96.06041992187502L359.745654296875 54.72565429687502H383.806298828125L403.943359375 80.43664062500002H404.780322265625L425.054345703125 54.72565429687502H448.06064453125L414.088916015625 96.06041992187502V123.48000000000002Z M496.545654296875 124.68000000000002Q482.102197265625 124.68000000000002 472.484814453125 120.63000000000002Q462.867431640625 116.58000000000001 458.0859130859375 108.6571728515625Q453.30439453125 100.73434570312502 453.30439453125 89.08000000000001Q453.30439453125 72.02565429687502 464.376123046875 62.77565429687502Q475.44785156250003 53.52565429687502 496.60869140625005 53.52565429687502Q508.42607421875005 53.52565429687502 517.4119384765625 57.07020996093752Q526.397802734375 60.61476562500002 531.456494140625 67.05932128906252Q536.515185546875 73.50387695312502 536.515185546875 82.24953125000002H516.6697265625Q516.6697265625 78.01037109375002 514.11318359375 74.95927246093751Q511.556640625 71.90817382812502 506.98051757812505 70.26251953125Q502.40439453125003 68.61686523437501 496.254345703125 68.61686523437501Q489.12387695312503 68.61686523437501 484.19775390625 71.03100097656251Q479.271630859375 73.44513671875 476.7509521484375 77.75602539062501Q474.2302734375 82.06691406250002 474.2302734375 87.78000000000002V90.28000000000002Q474.2302734375 95.93004882812502 476.7509521484375 100.29093750000001Q479.271630859375 104.65182617187502 484.1390625 107.1203076171875Q489.006494140625 109.58878906250001 496.028271484375 109.58878906250001Q502.641357421875 109.58878906250001 507.376171875 108.02030761718751Q512.110986328125 106.45182617187501 514.671875 103.45507324218752Q517.232763671875 100.45832031250002 517.232763671875 96.26481445312501H536.56083984375Q536.56083984375 104.75612304687502 531.6880126953125 111.17350585937501Q526.815185546875 117.59088867187502 517.8521484375 121.13544433593752Q508.889111328125 124.68000000000002 496.545654296875 124.68000000000002Z M548.450048828125 123.48000000000002V54.72565429687502H568.812890625V80.31266601562501H610.0783203125V54.72565429687502H630.441162109375V123.48000000000002H610.0783203125V96.70167968750002H568.812890625V123.48000000000002Z M638.43046875 123.48000000000002 672.2326660156251 54.72565429687502H694.867236328125L728.6694335937501 123.48000000000002H706.6435546875001L701.4478515625001 112.46251953125002H664.55205078125L659.410693359375 123.48000000000002ZM671.367236328125 97.55392578125002H694.6326660156251L688.3717285156251 83.57990234375Q687.9804199218751 82.64293945312502 687.2749755859376 80.92770507812502Q686.5695312500001 79.212470703125 685.8097412109375 77.26137207031252Q685.0499511718751 75.31027343750002 684.4086425781252 73.63310058593751Q683.7673339843751 71.95592773437502 683.4499511718751 71.14943359375002H682.7042968750001Q681.967333984375 72.986396484375 681.0075439453126 75.36901367187501Q680.0477539062501 77.75163085937501 679.1607910156251 79.98859375Q678.2738281250001 82.22555664062502 677.6281738281251 83.625556640625Z M736.650048828125 123.48000000000002V54.72565429687502H793.876025390625Q801.3934082031251 54.72565429687502 806.3151367187501 57.81151855468752Q811.236865234375 60.89738281250001 813.6999023437501 65.93759277343752Q816.1629394531251 70.97780273437502 816.1629394531251 76.93214843750002Q816.1629394531251 83.46691406250002 813.0672851562501 88.81691406250002Q809.9716308593751 94.16691406250001 803.7520507812501 97.27560546875002L817.80859375 123.48000000000002H794.8392578125L783.43486328125 100.61037109375002H757.0128906250001V123.48000000000002ZM757.0128906250001 85.56481445312502H787.23046875Q790.8979003906251 85.56481445312502 793.0946533203125 83.35827148437502Q795.29140625 81.15172851562502 795.29140625 77.50387695312502Q795.29140625 75.038642578125 794.30009765625 73.31471679687502Q793.3087890625001 71.59079101562502 791.5163818359376 70.70382812500002Q789.7239746093751 69.81686523437502 787.23046875 69.81686523437502H757.0128906250001Z M822.8043945312501 123.48000000000002V116.42565429687502L865.489306640625 69.81686523437502H825.8500488281251V54.72565429687502H899.6672363281251V61.734345703125015L856.8366699218751 108.38878906250002H900.3933105468751V123.48000000000002Z" fill="#0E0E10"/><rect x="0" y="133.1" width="905.1" height="11.0" fill="#FFD400"/></svg>