<svg xmlns="http://www.w3.org/2000/svg" width="1037.4" height="119.8" viewBox="0 0 1037.4 119.8" role="img" aria-label="OSK Ostrycharz"><rect x="3.1" y="3.1" width="1031.3" height="113.6" fill="none" stroke="#0E0E10" stroke-width="6.2"/><rect x="22" y="16" width="87.8" height="87.8" fill="#FFD400"/><path d="M36.65 94.2V25.45H57.01V77.81H101.16V94.2Z" fill="#0E0E10"/><path d="M180.22 85.46Q170.27 85.46 162.96 82.41Q155.66 79.37 151.71 73.64Q147.76 67.92 147.76 59.86Q147.76 51.74 151.71 46.01Q155.66 40.28 162.96 37.26Q170.27 34.23 180.22 34.23Q190.31 34.23 197.58 37.26Q204.84 40.28 208.79 46.01Q212.74 51.74 212.74 59.86Q212.74 67.92 208.79 73.64Q204.84 79.37 197.58 82.41Q190.31 85.46 180.22 85.46ZM180.25 74.59Q184.13 74.59 187.33 73.65Q190.52 72.7 192.84 70.89Q195.17 69.08 196.42 66.48Q197.67 63.87 197.67 60.62V58.92Q197.67 55.69 196.42 53.11Q195.17 50.54 192.84 48.75Q190.52 46.96 187.33 46.03Q184.13 45.09 180.25 45.09Q176.38 45.09 173.18 46.03Q169.98 46.96 167.66 48.75Q165.34 50.54 164.1 53.11Q162.86 55.69 162.86 58.92V60.62Q162.86 63.87 164.1 66.48Q165.34 69.08 167.66 70.89Q169.98 72.7 173.18 73.65Q176.38 74.59 180.25 74.59Z M247.81 85.46Q241.76 85.46 236.51 84.74Q231.27 84.01 227.32 82.21Q223.37 80.41 221.15 77.18Q218.92 73.95 218.92 68.99Q218.92 68.84 218.92 68.61Q218.92 68.37 218.99 68.15H233.35Q233.28 68.44 233.26 68.75Q233.25 69.07 233.25 69.42Q233.25 71.61 234.92 72.88Q236.59 74.15 239.64 74.66Q242.69 75.17 246.73 75.17Q248.43 75.17 250.2 75.07Q251.97 74.97 253.62 74.7Q255.27 74.44 256.59 73.95Q257.9 73.46 258.68 72.68Q259.46 71.91 259.46 70.8Q259.46 69.25 257.81 68.35Q256.16 67.44 253.34 66.9Q250.52 66.36 247.01 65.93Q243.51 65.5 239.76 64.91Q236 64.32 232.5 63.28Q229 62.23 226.18 60.5Q223.36 58.76 221.7 56.04Q220.05 53.31 220.05 49.38Q220.05 45.45 222.04 42.59Q224.03 39.73 227.62 37.88Q231.21 36.02 236.1 35.13Q241 34.23 246.76 34.23Q252.64 34.23 257.43 35.14Q262.21 36.05 265.65 37.88Q269.08 39.71 270.93 42.5Q272.78 45.28 272.78 49.03V50.03H258.56V49.44Q258.56 47.94 257.26 46.77Q255.97 45.61 253.48 44.91Q251 44.21 247.45 44.21Q243.21 44.21 240.48 44.74Q237.74 45.27 236.45 46.19Q235.15 47.11 235.15 48.2Q235.15 49.66 236.8 50.51Q238.46 51.37 241.28 51.86Q244.1 52.36 247.6 52.78Q251.1 53.21 254.86 53.8Q258.61 54.39 262.11 55.37Q265.62 56.36 268.44 58.07Q271.26 59.79 272.91 62.4Q274.56 65.02 274.56 68.84Q274.56 74.79 271.12 78.46Q267.67 82.13 261.63 83.79Q255.58 85.46 247.81 85.46Z M282.36 84.6V35.09H297.03V59.12L323.96 35.09H342.47L319.83 55.49L342.98 84.6H324.8L309.03 64.3L297.03 74.02V84.6Z M400.18 85.46Q390.23 85.46 382.92 82.41Q375.62 79.37 371.67 73.64Q367.72 67.92 367.72 59.86Q367.72 51.74 371.67 46.01Q375.62 40.28 382.92 37.26Q390.23 34.23 400.18 34.23Q410.27 34.23 417.54 37.26Q424.8 40.28 428.75 46.01Q432.7 51.74 432.7 59.86Q432.7 67.92 428.75 73.64Q424.8 79.37 417.54 82.41Q410.27 85.46 400.18 85.46ZM400.21 74.59Q404.09 74.59 407.29 73.65Q410.48 72.7 412.8 70.89Q415.13 69.08 416.38 66.48Q417.63 63.87 417.63 60.62V58.92Q417.63 55.69 416.38 53.11Q415.13 50.54 412.8 48.75Q410.48 46.96 407.29 46.03Q404.09 45.09 400.21 45.09Q396.34 45.09 393.14 46.03Q389.94 46.96 387.62 48.75Q385.3 50.54 384.06 53.11Q382.82 55.69 382.82 58.92V60.62Q382.82 63.87 384.06 66.48Q385.3 69.08 387.62 70.89Q389.94 72.7 393.14 73.65Q396.34 74.59 400.21 74.59Z M467.77 85.46Q461.72 85.46 456.47 84.74Q451.23 84.01 447.28 82.21Q443.33 80.41 441.11 77.18Q438.88 73.95 438.88 68.99Q438.88 68.84 438.88 68.61Q438.88 68.37 438.95 68.15H453.31Q453.24 68.44 453.22 68.75Q453.21 69.07 453.21 69.42Q453.21 71.61 454.88 72.88Q456.55 74.15 459.6 74.66Q462.65 75.17 466.69 75.17Q468.39 75.17 470.16 75.07Q471.93 74.97 473.58 74.7Q475.23 74.44 476.55 73.95Q477.86 73.46 478.64 72.68Q479.42 71.91 479.42 70.8Q479.42 69.25 477.77 68.35Q476.12 67.44 473.3 66.9Q470.48 66.36 466.97 65.93Q463.47 65.5 459.72 64.91Q455.96 64.32 452.46 63.28Q448.96 62.23 446.14 60.5Q443.32 58.76 441.66 56.04Q440.01 53.31 440.01 49.38Q440.01 45.45 442 42.59Q443.99 39.73 447.58 37.88Q451.17 36.02 456.06 35.13Q460.96 34.23 466.72 34.23Q472.6 34.23 477.39 35.14Q482.17 36.05 485.61 37.88Q489.04 39.71 490.89 42.5Q492.74 45.28 492.74 49.03V50.03H478.52V49.44Q478.52 47.94 477.22 46.77Q475.93 45.61 473.44 44.91Q470.96 44.21 467.41 44.21Q463.17 44.21 460.44 44.74Q457.7 45.27 456.41 46.19Q455.11 47.11 455.11 48.2Q455.11 49.66 456.76 50.51Q458.42 51.37 461.24 51.86Q464.06 52.36 467.56 52.78Q471.06 53.21 474.82 53.8Q478.57 54.39 482.07 55.37Q485.58 56.36 488.4 58.07Q491.22 59.79 492.87 62.4Q494.52 65.02 494.52 68.84Q494.52 74.79 491.08 78.46Q487.63 82.13 481.59 83.79Q475.54 85.46 467.77 85.46Z M519.45 84.6V46.89H497.99V35.09H555.56V46.89H534.11V84.6Z M561.94 84.6V35.09H603.14Q608.56 35.09 612.1 37.31Q615.64 39.54 617.42 43.17Q619.19 46.79 619.19 51.08Q619.19 55.79 616.96 59.64Q614.73 63.49 610.25 65.73L620.37 84.6H603.84L595.63 68.13H576.6V84.6ZM576.6 57.3H598.36Q601 57.3 602.58 55.71Q604.16 54.12 604.16 51.49Q604.16 49.72 603.45 48.48Q602.73 47.24 601.44 46.6Q600.15 45.96 598.36 45.96H576.6Z M647.24 84.6V64.85L622.78 35.09H640.1L654.6 53.6H655.2L669.8 35.09H686.36L661.9 64.85V84.6Z M721.27 85.46Q710.87 85.46 703.95 82.54Q697.02 79.63 693.58 73.92Q690.14 68.22 690.14 59.83Q690.14 47.55 698.11 40.89Q706.08 34.23 721.32 34.23Q729.83 34.23 736.3 36.78Q742.77 39.33 746.41 43.97Q750.05 48.61 750.05 54.91H735.76Q735.76 51.86 733.92 49.66Q732.08 47.46 728.79 46.28Q725.49 45.09 721.06 45.09Q715.93 45.09 712.38 46.83Q708.84 48.57 707.02 51.67Q705.21 54.78 705.21 58.89V60.69Q705.21 64.76 707.02 67.9Q708.84 71.04 712.34 72.82Q715.84 74.59 720.9 74.59Q725.66 74.59 729.07 73.47Q732.48 72.34 734.32 70.18Q736.17 68.02 736.17 65H750.08Q750.08 71.11 746.58 75.74Q743.07 80.36 736.61 82.91Q730.16 85.46 721.27 85.46Z M758.64 84.6V35.09H773.31V53.52H803.02V35.09H817.68V84.6H803.02V65.32H773.31V84.6Z M823.43 84.6 847.77 35.09H864.06L888.4 84.6H872.54L868.8 76.66H842.24L838.54 84.6ZM847.14 65.93H863.9L859.39 55.87Q859.11 55.19 858.6 53.96Q858.09 52.72 857.54 51.32Q857 49.91 856.53 48.71Q856.07 47.5 855.84 46.92H855.31Q854.78 48.24 854.09 49.96Q853.39 51.67 852.76 53.28Q852.12 54.89 851.65 55.9Z M894.15 84.6V35.09H935.35Q940.76 35.09 944.31 37.31Q947.85 39.54 949.62 43.17Q951.4 46.79 951.4 51.08Q951.4 55.79 949.17 59.64Q946.94 63.49 942.46 65.73L952.58 84.6H936.04L927.83 68.13H908.81V84.6ZM908.81 57.3H930.57Q933.21 57.3 934.79 55.71Q936.37 54.12 936.37 51.49Q936.37 49.72 935.66 48.48Q934.94 47.24 933.65 46.6Q932.36 45.96 930.57 45.96H908.81Z M956.18 84.6V79.52L986.91 45.96H958.37V35.09H1011.52V40.14L980.68 73.73H1012.04V84.6Z" fill="#0E0E10"/></svg>